<svg width="66" height="62" viewBox="0 0 66 62" fill="none" xmlns="http://www.w3.org/2000/svg">
<path fill-rule="evenodd" clip-rule="evenodd" d="M32.8037 3.05693C40.3829 1.29515 46.4389 5.15405 50.7223 8.29223C65.9222 19.4235 68.7501 49.4339 50.1661 53.5931C36.3906 56.6762 25.7756 43.5829 22.0692 34.8891C16.3615 21.5206 19.8911 6.06498 32.8037 3.05693ZM3.45404 51.8613C5.53337 52.8623 6.26633 52.7172 9.25536 52.7222C17.9989 52.7222 22.2096 61.7964 40.4453 58.2278C42.2491 57.8724 43.4655 57.6522 44.9158 56.516C28.4319 54.7943 17.266 38.1625 16.8449 23.2023C16.6266 15.7348 18.4876 12.4915 21.2427 7.30623C15.0827 10.4094 8.76672 16.7057 6.21954 24.2384C4.1818 30.2444 5.17988 32.747 5.66332 38.7531C6.18316 45.0644 1.4163 45.7952 3.49563 51.8763L3.45404 51.8613ZM32.0656 0.454296C16.5694 3.47235 0.516991 16.5606 2.31561 34.789C3.45924 46.5009 2.13887 39.7941 0.309059 47.1015C-1.06849 52.6071 2.29482 55.3849 7.69587 55.3248C17.1672 55.2147 18.5499 62.0817 33.6874 61.5962C51.0082 61.0406 68.251 50.7752 65.6987 30.3846C64.6018 21.5206 60.2612 13.4474 55.2345 8.9579C49.2824 3.63752 42.5714 -1.59278 32.0656 0.454296Z" fill="white"/>
<path fill-rule="evenodd" clip-rule="evenodd" d="M43.0652 31.766C45.4409 33.8231 47.3538 36.4357 49.4955 38.9983C50.9875 40.7851 55.7803 45.7151 50.8055 47.7071C38.9326 52.4669 41.6617 38.9833 43.06 31.761L43.0652 31.766ZM38.0125 45.2346C39.0209 42.8572 40.2893 33.6329 40.149 30.4747C38.21 30.4747 35.8916 30.9752 33.885 31.3956C29.4249 32.2915 29.7575 31.736 28.5827 33.4627C26.8569 36.0353 33.386 44.5089 38.0125 45.2346ZM44.1829 28.813L49.6047 34.9092C52.3806 37.9623 53.2435 39.9142 56.0402 40.5549C59.2632 37.2065 59.05 30.7199 56.243 26.7059C54.0597 26.4957 46.127 27.2514 44.1829 28.813ZM38.9846 27.7119C35.2678 28.2124 27.6054 31.2855 25.7341 27.827C23.7223 24.0932 24.8763 17.5166 27.0804 15.3794C30.1162 16.2002 37.0248 24.6638 38.9846 27.7119ZM42.9561 25.6748C43.0236 22.0912 43.6318 13.3924 45.2693 10.8248C48.2687 11.1101 50.2285 13.7377 51.6373 15.4345C59.0448 24.3535 53.3111 24.0231 42.9613 25.6748H42.9561ZM40.2374 24.1082C40.5804 20.88 41.5577 14.6987 41.3342 11.7607C40.9755 7.03596 35.7876 6.50542 31.9304 8.50745C27.6418 10.7347 31.9876 14.8489 33.5367 16.8559C34.6959 18.3574 38.735 23.5677 40.2425 24.1283L40.2374 24.1082ZM27.4807 12.7768C20.5981 13.7077 21.8301 25.6148 23.0881 28.3976C24.3981 31.2755 25.8224 29.9742 25.6873 32.9322C25.3494 39.2536 32.8349 49.549 39.9203 47.1866C43.6422 54.6942 57.7557 50.4048 55.6348 43.8582C55.7283 43.7731 55.8999 43.5479 55.9467 43.643C55.9467 43.643 58.6186 42.3767 59.5855 40.64C60.412 39.1384 60.8123 36.721 60.9422 34.754C61.3633 28.3175 60.1573 27.6168 57.1943 24.2434C59.2268 17.5966 50.0102 6.59051 43.5799 8.72767C41.1523 6.19511 39.6655 4.14804 34.1605 5.15405C29.4872 5.96488 26.9141 7.6716 27.4807 12.7768Z" fill="white"/>
<path fill-rule="evenodd" clip-rule="evenodd" d="M3.4541 51.9496C5.53343 52.9506 6.26639 52.8054 9.25542 52.8104C17.999 52.8104 22.2096 61.8846 40.4453 58.316C42.2491 57.9607 43.4655 57.7404 44.9159 56.6043C28.432 54.8825 17.266 38.2507 16.845 23.2906C16.6266 15.823 18.4876 12.5797 21.2427 7.39449C15.0827 10.4976 8.76678 16.794 6.2196 24.3266C4.18186 30.3327 5.17994 32.8352 5.66338 38.8413C6.18322 45.1527 1.41636 45.8834 3.49569 51.9646L3.4541 51.9496Z" fill="#FFE500"/>
</svg>
