<svg width="18" height="18" viewBox="0 0 18 18" fill="none" xmlns="http://www.w3.org/2000/svg">
<path d="M1.80245 12.6923C1.54605 13.0262 1.40966 13.4365 1.41526 13.8572C1.42086 14.2778 1.56813 14.6844 1.83333 15.0113C2.09853 15.3382 2.46622 15.5664 2.87715 15.6592C3.28808 15.7519 3.71832 15.7039 4.09854 15.5226C5.4648 16.5706 7.13737 17.1426 8.86014 17.1509C10.5829 17.1593 12.261 16.6036 13.6373 15.5689L3.07785 3.99969C2.02337 5.15749 1.33873 6.60311 1.11153 8.15162C0.884332 9.70013 1.1249 11.2811 1.80245 12.6923Z" fill="#FFE500"/>
<path d="M7.69943 1.15247L3.19775 4.21744L6.21877 12.2794L13.4859 15.524L17.1626 12.1476L14.5148 5.222L7.69943 1.15247Z" fill="black"/>
<path d="M8.16805 1.69476L4.14697 4.44194L6.8453 11.6671L13.3366 14.5749L16.6204 11.549L14.2552 5.34204L8.16805 1.69476Z" fill="white"/>
<path d="M3.07828 4.02741C2.02352 5.18284 1.33874 6.62543 1.11152 8.17068C0.884304 9.71592 1.12499 11.2936 1.80278 12.7018C1.54629 13.0349 1.40985 13.4444 1.41545 13.8642C1.42106 14.284 1.56838 14.6896 1.83367 15.0159C2.09897 15.3421 2.46679 15.5698 2.87786 15.6624C3.28894 15.755 3.71933 15.707 4.09969 15.5262C5.46154 16.5682 7.12776 17.1387 8.84494 17.1508C10.5621 17.1629 12.2363 16.6161 13.6128 15.5934L17.4336 12.1512L14.71 5.05241L7.70404 0.881287L3.07828 4.02741Z" stroke="black" stroke-linecap="round" stroke-linejoin="round"/>
<path d="M10.2473 7.52485L8.21045 2.50836L5.09521 4.61062L10.2473 7.52485Z" fill="black"/>
<path d="M10.2481 8.10221L4.96045 5.08435L7.09422 10.7787L10.2481 8.10221Z" fill="black"/>
<path d="M8.62061 2.6438L10.7372 7.79587L13.5015 5.49841L8.62061 2.6438Z" fill="black"/>
<path d="M10.5515 8.47394L7.40088 11.0973L12.553 13.3548L10.5515 8.47394Z" fill="black"/>
<path d="M11.0615 8.6095L13.0189 13.3548L15.5357 11.1006L11.0615 8.6095Z" fill="black"/>
<path d="M11.0615 8.04328L15.5357 10.643L13.7025 5.76208L11.0615 8.04328Z" fill="black"/>
</svg>
